<svg width="24" height="24" viewBox="0 0 24 24" fill="none" xmlns="http://www.w3.org/2000/svg">
<path d="M22 12C22 9.24 20.88 6.74 19.07 4.93L18.01 5.99C19.55 7.53 20.5 9.66 20.5 12C20.5 14.34 19.55 16.47 18.01 18.01L19.07 19.07C20.88 17.26 22 14.76 22 12ZM3.5 12C3.5 9.66 4.45 7.53 5.99 5.99L4.93 4.93C3.12 6.74 2 9.24 2 12C2 14.76 3.12 17.26 4.93 19.07L5.99 18.01C4.45 16.47 3.5 14.34 3.5 12ZM17.5 12C17.5 13.52 16.88 14.89 15.89 15.89L16.95 16.95C18.22 15.68 19 13.93 19 12C19 10.07 18.22 8.32 16.95 7.05L15.89 8.11C16.88 9.11 17.5 10.48 17.5 12ZM7.05 16.95L8.11 15.89C7.11 14.89 6.5 13.52 6.5 12C6.5 10.48 7.12 9.11 8.11 8.11L7.05 7.05C5.78 8.32 5 10.07 5 12C5 13.93 5.78 15.68 7.05 16.95Z" fill="#495154" fill-opacity="0.59"/>
<circle cx="12" cy="12" r="3" fill="#495154" fill-opacity="0.59"/>
</svg>
