<svg width="25" height="24" viewBox="0 0 25 24" fill="none" xmlns="http://www.w3.org/2000/svg">
<path d="M6.23763 13H2.07922C1.8035 13 1.53907 13.1054 1.3441 13.2929C1.14914 13.4804 1.03961 13.7348 1.03961 14V22C1.03961 22.2652 1.14914 22.5196 1.3441 22.7071C1.53907 22.8946 1.8035 23 2.07922 23H6.23763C6.51335 23 6.77778 22.8946 6.97274 22.7071C7.16771 22.5196 7.27724 22.2652 7.27724 22V14C7.27724 13.7348 7.16771 13.4804 6.97274 13.2929C6.77778 13.1054 6.51335 13 6.23763 13ZM5.19803 21H3.11882V15H5.19803V21ZM22.8713 9H18.7129C18.4372 9 18.1727 9.10536 17.9778 9.29289C17.7828 9.48043 17.6733 9.73478 17.6733 10V22C17.6733 22.2652 17.7828 22.5196 17.9778 22.7071C18.1727 22.8946 18.4372 23 18.7129 23H22.8713C23.147 23 23.4114 22.8946 23.6064 22.7071C23.8014 22.5196 23.9109 22.2652 23.9109 22V10C23.9109 9.73478 23.8014 9.48043 23.6064 9.29289C23.4114 9.10536 23.147 9 22.8713 9ZM21.8317 21H19.7525V11H21.8317V21ZM14.5545 1H10.396C10.1203 1 9.8559 1.10536 9.66094 1.29289C9.46597 1.48043 9.35644 1.73478 9.35644 2V22C9.35644 22.2652 9.46597 22.5196 9.66094 22.7071C9.8559 22.8946 10.1203 23 10.396 23H14.5545C14.8302 23 15.0946 22.8946 15.2896 22.7071C15.4845 22.5196 15.5941 22.2652 15.5941 22V2C15.5941 1.73478 15.4845 1.48043 15.2896 1.29289C15.0946 1.10536 14.8302 1 14.5545 1ZM13.5149 21H11.4357V3H13.5149V21Z" fill="#495154" fill-opacity="0.59"/>
</svg>
